<svg id="Capa_1" width="25" height="25" enable-background="new 0 0 512 512" viewBox="0 0 512 512" xmlns="http://www.w3.org/2000/svg"><path d="m318.537 0h-227.817c-11.536 0-20.92 9.385-20.92 20.92v470.16c0 11.536 9.385 20.92 20.92 20.92h330.561c11.535 0 20.92-9.385 20.92-20.92v-51.586c0-4.142-3.358-7.5-7.5-7.5s-7.5 3.358-7.5 7.5v51.586c0 3.265-2.656 5.92-5.92 5.92h-330.561c-3.265 0-5.92-2.656-5.92-5.92v-470.16c0-3.265 2.656-5.92 5.92-5.92h221.306c19.812 0 36.559 13.37 41.693 31.561h-82.73c-4.142 0-7.5 3.358-7.5 7.5s3.358 7.5 7.5 7.5h84.351v4.38c0 11.152 8.771 20.293 19.776 20.889-.568.717-1.014 1.55-1.296 2.479l-12.793 42.095-12.794-42.096c-1.204-3.963-5.391-6.199-9.357-4.995-3.963 1.205-6.199 5.394-4.995 9.357l19.97 65.707c.96 3.159 3.874 5.319 7.176 5.319s6.216-2.16 7.176-5.319l19.967-65.707c.725-2.384.204-4.85-1.189-6.698 22.445 1.592 40.219 20.361 40.219 43.204v274.318c0 4.142 3.358 7.5 7.5 7.5s7.5-3.358 7.5-7.5v-280.83c.001-68.189-55.474-123.664-123.663-123.664zm65.35 71.862h-7.627c-3.264 0-5.92-2.656-5.92-5.92v-7.628c0-13.542-4.638-26.018-12.411-35.927 28.285 11.039 50.847 33.602 61.886 61.887-9.91-7.774-22.387-12.412-35.928-12.412z" fill="#000000" style="fill: rgb(255, 255, 255);"></path><path d="m126.488 111.213c-4.142 0-7.5 3.358-7.5 7.5v73.244c0 5.607 4.562 10.168 10.168 10.168h99.165c5.606 0 10.168-4.562 10.168-10.168v-135.228c0-5.606-4.562-10.168-10.168-10.168h-99.165c-5.606 0-10.168 4.562-10.168 10.168v26.984c0 4.142 3.358 7.5 7.5 7.5s7.5-3.358 7.5-7.5v-22.152h89.5v83.276c-2.402-.868-4.99-1.341-7.688-1.341h-16.359c5.455-4.7 9.726-11.109 10.297-18.874l1.721-23.369c1.399-19-13.672-35.22-32.723-35.22s-34.122 16.221-32.722 35.22l1.721 23.369c.572 7.765 4.843 14.174 10.298 18.874h-16.359c-2.697 0-5.286.474-7.688 1.341v-26.124c.002-4.142-3.356-7.5-7.498-7.5zm52.25-30.18c10.301 0 18.529 8.724 17.763 19.119l-1.722 23.369c-.515 6.995-10.996 13.909-16.041 13.909-4.826 0-15.508-6.666-16.042-13.909l-1.721-23.369c-.756-10.273 7.34-19.119 17.763-19.119zm-37.062 77.463h22c4.384 0 8.096-2.932 9.279-6.938 2.103.574 4.075.871 5.785.871s3.681-.297 5.784-.871c1.183 4.006 4.895 6.938 9.279 6.938h22c4.239 0 7.688 3.449 7.688 7.688v20.941h-89.5v-20.941c-.003-4.239 3.446-7.688 7.685-7.688z" fill="#000000" style="fill: rgb(255, 255, 255);"></path><path d="m393.012 243.896c0-7.452-6.063-13.515-13.515-13.515h-246.994c-7.452 0-13.515 6.063-13.515 13.515v14.593c0 7.452 6.063 13.515 13.515 13.515h246.993c7.452 0 13.515-6.063 13.515-13.515v-14.593zm-15 13.108h-244.024v-11.623h244.023v11.623z" fill="#000000" style="fill: rgb(255, 255, 255);"></path><path d="m393.012 306.997c0-7.452-6.063-13.515-13.515-13.515h-246.994c-7.452 0-13.515 6.063-13.515 13.515v14.592c0 7.452 6.063 13.515 13.515 13.515h16.784c4.142 0 7.5-3.358 7.5-7.5s-3.358-7.5-7.5-7.5h-15.299v-11.623h244.023v11.623h-193.724c-4.142 0-7.5 3.358-7.5 7.5s3.358 7.5 7.5 7.5h195.209c7.452 0 13.515-6.063 13.515-13.515v-14.592z" fill="#000000" style="fill: rgb(255, 255, 255);"></path><path d="m393.012 383.689v-14.592c0-7.452-6.063-13.515-13.515-13.515h-246.994c-7.452 0-13.515 6.063-13.515 13.515v14.592c0 7.452 6.063 13.515 13.515 13.515h246.993c7.453.001 13.516-6.062 13.516-13.515zm-15-1.484h-244.024v-11.623h244.023v11.623z" fill="#000000" style="fill: rgb(255, 255, 255);"></path><path d="m132.503 418.682c-7.452 0-13.515 6.063-13.515 13.515v14.593c0 7.452 6.063 13.515 13.515 13.515h190.968c7.452 0 13.515-6.063 13.515-13.515v-14.593c0-7.452-6.063-13.515-13.515-13.515zm189.484 26.623h-187.999v-11.623h187.999z" fill="#000000" style="fill: rgb(255, 255, 255);"></path><path d="m385.512 187.125h-114.523c-4.142 0-7.5 3.358-7.5 7.5s3.358 7.5 7.5 7.5h114.523c4.142 0 7.5-3.358 7.5-7.5s-3.358-7.5-7.5-7.5z" fill="#000000" style="fill: rgb(255, 255, 255);"></path><path d="m295.475 98.99c5.438 0 10.209 3.473 11.874 8.642 1.271 3.943 5.495 6.11 9.438 4.84s6.11-5.495 4.84-9.438c-3.668-11.391-14.178-19.044-26.152-19.044-15.146 0-27.469 12.323-27.469 27.47v25.767c0 15.147 12.323 27.47 27.469 27.47 11.974 0 22.483-7.653 26.151-19.043 1.27-3.942-.897-8.168-4.84-9.438-3.943-1.269-8.168.897-9.438 4.84-1.665 5.168-6.436 8.641-11.873 8.641-6.875 0-12.469-5.594-12.469-12.47v-25.767c0-6.877 5.594-12.47 12.469-12.47z" fill="#FFF" style="fill: rgb(255, 255, 255);"></path></svg>