<!-- icon666.com - MILLIONS OF FREE VECTOR ICONS --><svg fill="none" viewBox="0 0 24 24" xmlns="http://www.w3.org/2000/svg"><g fill="rgb(0,0,0)"><path d="m5 6c.55228 0 1-.44772 1-1s-.44772-1-1-1-1 .44772-1 1 .44772 1 1 1z" fill="rgb(0,0,0)" style="fill: rgb(175, 150, 97);"></path><path d="m9 5c0 .55228-.44772 1-1 1s-1-.44772-1-1 .44772-1 1-1 1 .44772 1 1z" fill="rgb(0,0,0)" style="fill: rgb(175, 150, 97);"></path><path d="m11 6c.5523 0 1-.44772 1-1s-.4477-1-1-1-1 .44772-1 1 .4477 1 1 1z" fill="rgb(0,0,0)" style="fill: rgb(175, 150, 97);"></path><path clip-rule="evenodd" d="m0 4c0-1.65685 1.34315-3 3-3h18c1.6569 0 3 1.34315 3 3v16c0 1.6569-1.3431 3-3 3h-18c-1.65686 0-3-1.3431-3-3zm3-1c-.55228 0-1 .44772-1 1v3h20v-3c0-.55229-.4477-1-1-1zm-1 17v-11h20v11c0 .5523-.4477 1-1 1h-18c-.55228 0-1-.4477-1-1z" fill-rule="evenodd" fill="rgb(0,0,0)" style="fill: rgb(175, 150, 97);"></path></g></svg>